<?xml version="1.0" standalone="no"?>
<!DOCTYPE svg PUBLIC "-//W3C//DTD SVG 20010904//EN"
 "http://www.w3.org/TR/2001/REC-SVG-20010904/DTD/svg10.dtd">
<svg version="1.0" xmlns="http://www.w3.org/2000/svg"
 width="500.000000pt" height="500.000000pt" viewBox="0 0 500.000000 500.000000"
 preserveAspectRatio="xMidYMid meet">

<g transform="translate(0.000000,500.000000) scale(0.100000,-0.100000)"
fill="#000000" stroke="none">
<path d="M2735 3578 c-34 -40 -65 -111 -65 -146 1 -35 32 -102 59 -126 12 -11
21 -31 21 -48 0 -15 5 -28 11 -28 9 0 10 17 4 63 -11 82 -12 157 -2 185 5 14
4 22 -2 22 -19 0 -34 -43 -35 -98 0 -47 -2 -51 -14 -35 -23 31 -11 124 22 172
l29 41 23 -32 c43 -57 43 -131 2 -175 -22 -24 -19 -39 5 -30 21 8 47 71 47
114 0 44 -28 110 -57 136 -20 17 -21 17 -48 -15z"/>
<path d="M2875 3390 c-48 -23 -72 -60 -81 -121 -3 -24 -17 -61 -31 -82 -13
-22 -22 -41 -19 -44 2 -3 29 19 58 50 70 71 108 90 192 97 47 3 71 10 74 19 4
11 -8 13 -65 9 -53 -4 -84 -13 -128 -36 l-58 -31 6 37 c12 71 92 113 186 97
48 -8 131 -59 131 -80 0 -21 -69 -87 -114 -109 -38 -18 -132 -19 -185 -1 -18
6 -23 5 -19 -6 3 -8 27 -20 54 -28 95 -27 199 15 271 109 l34 45 -28 23 c-84
70 -199 91 -278 52z"/>
<path d="M1856 3053 c4 -10 10 -74 14 -143 4 -69 10 -133 14 -142 5 -10 24
-27 43 -39 27 -17 45 -20 89 -17 98 8 122 55 126 256 l3 103 -25 -3 c-23 -3
-25 -6 -20 -43 3 -22 5 -83 5 -135 0 -114 -14 -145 -71 -156 -47 -9 -101 16
-110 50 -3 13 -4 83 -2 155 l3 131 -39 0 c-33 0 -37 -3 -30 -17z"/>
<path d="M2516 3053 c4 -10 9 -70 11 -133 l5 -115 -131 130 -131 130 0 -145
c0 -80 -4 -160 -9 -178 -10 -32 -9 -32 26 -32 28 0 33 3 25 13 -12 14 -25 214
-15 230 3 5 62 -48 132 -117 l127 -126 -1 152 c0 84 4 165 8 181 7 25 5 27
-24 27 -26 0 -30 -3 -23 -17z"/>
<path d="M2687 3031 c12 -61 7 -289 -7 -306 -11 -13 -6 -15 39 -15 l51 0 -15
24 c-14 20 -16 49 -13 163 2 76 8 146 12 155 7 16 3 18 -33 16 l-41 -1 7 -36z"/>
<path d="M2860 3061 c0 -6 5 -13 10 -16 15 -9 13 -308 -2 -323 -9 -9 0 -12 41
-12 48 0 51 1 37 16 -12 11 -16 35 -16 85 0 83 3 82 77 -4 61 -72 98 -97 143
-96 28 0 31 2 15 8 -11 5 -56 48 -99 95 -90 100 -92 83 16 186 32 31 58 59 58
63 0 4 -13 7 -30 7 -22 0 -30 -5 -30 -17 0 -16 -88 -116 -134 -153 -18 -14
-19 -11 -14 78 l4 92 -38 0 c-21 0 -38 -4 -38 -9z"/>
<path d="M1334 2358 c12 -17 16 -49 16 -133 l0 -110 -130 130 -130 130 0 -158
c0 -90 -4 -167 -10 -178 -10 -17 -7 -19 26 -19 30 0 34 3 25 14 -14 17 -28
236 -15 236 6 0 65 -56 132 -123 67 -68 122 -123 123 -123 0 1 2 73 2 162 2
120 6 165 16 177 12 15 9 17 -28 17 -42 0 -42 0 -27 -22z"/>
<path d="M1846 2364 c-3 -9 -6 -17 -6 -18 0 -1 29 0 65 2 l65 4 0 -154 c0
-106 -4 -158 -12 -166 -9 -9 0 -12 43 -12 41 1 50 3 37 11 -16 9 -18 28 -18
165 l0 156 60 -4 c33 -1 60 -2 60 -1 0 1 3 8 6 17 5 14 -11 16 -144 16 -127 0
-151 -2 -156 -16z"/>
<path d="M2226 2353 c9 -19 14 -61 14 -131 0 -162 35 -209 148 -200 46 4 60
10 83 36 29 33 36 70 41 240 l3 82 -28 0 c-24 0 -28 -3 -22 -17 11 -26 19
-196 11 -239 -16 -80 -102 -112 -160 -59 -21 20 -26 33 -27 77 -1 104 2 210 8
224 4 11 -5 14 -40 14 l-46 0 15 -27z"/>
<path d="M2655 2371 c-26 -4 -36 -9 -27 -14 15 -10 17 -289 2 -318 -10 -18 -7
-19 40 -19 47 0 50 1 36 16 -11 10 -16 34 -16 75 0 58 0 59 28 59 22 0 32 -7
41 -27 25 -55 63 -102 93 -112 52 -18 57 -12 21 27 -19 20 -45 57 -59 81 l-24
44 20 22 c41 43 35 118 -12 149 -28 19 -90 26 -143 17z m119 -43 c9 -12 16
-38 16 -58 0 -51 -24 -80 -66 -80 l-34 0 0 80 0 80 34 0 c25 0 39 -7 50 -22z"/>
<path d="M3354 2358 c13 -18 16 -52 16 -161 0 -76 -5 -147 -10 -158 -10 -18
-6 -19 90 -19 l100 0 0 27 c0 25 -1 25 -18 10 -23 -21 -85 -22 -102 -1 -18 21
-19 270 -2 302 12 21 12 22 -38 22 -51 0 -51 0 -36 -22z"/>
<path d="M3673 2360 c-65 -39 -52 -108 33 -171 59 -45 79 -84 60 -120 -16 -33
-84 -39 -111 -9 -21 24 -35 26 -35 5 0 -28 47 -48 102 -43 64 7 98 40 98 95 0
36 -1 37 -118 147 -32 30 -27 77 10 90 23 8 34 6 58 -12 30 -22 30 -22 30 -2
0 40 -75 52 -127 20z"/>
<path d="M1604 2334 c-9 -22 -38 -93 -65 -158 -27 -66 -56 -128 -65 -138 -16
-17 -15 -18 19 -18 30 0 34 3 30 19 -3 11 0 36 7 55 l12 36 69 0 c67 0 69 -1
85 -31 9 -17 14 -42 11 -55 -4 -23 -2 -24 47 -24 29 0 46 4 39 8 -7 5 -47 82
-89 173 -42 90 -78 166 -79 168 -2 2 -11 -14 -21 -35z m36 -111 c14 -31 27
-60 28 -65 2 -4 -22 -8 -53 -8 -56 0 -57 0 -51 26 9 35 39 104 46 104 3 0 16
-26 30 -57z"/>
<path d="M3089 2338 c-7 -18 -24 -60 -39 -93 -15 -33 -39 -91 -55 -130 -16
-38 -33 -76 -38 -82 -7 -10 -2 -13 21 -13 24 0 29 4 26 18 -3 9 2 34 11 55
l15 37 69 0 68 0 13 -39 c7 -22 10 -47 7 -55 -5 -13 2 -16 45 -16 48 0 50 1
36 18 -9 9 -48 88 -88 175 -40 86 -74 157 -75 157 -1 0 -8 -15 -16 -32z m35
-119 c14 -33 26 -62 26 -65 0 -2 -25 -4 -55 -4 -30 0 -55 3 -55 6 0 14 45 124
51 124 4 0 18 -27 33 -61z"/>
</g>
</svg>
